<svg width="598" height="185" viewBox="0 0 598 185" fill="none" xmlns="http://www.w3.org/2000/svg">
<g clip-path="url(#clip0_15_495)">
<path d="M46 150.97C58.53 163.6 76.8 169.92 100.81 169.92C124.82 169.92 143.4 163.6 155.84 150.97C158.93 147.83 161.63 144.36 163.95 140.54C166.59 136.21 168.73 131.44 170.37 126.22C171.85 121.57 172.93 116.57 173.61 111.23C173.13 110.88 172.67 110.52 172.21 110.15C161.05 101.16 155.38 88.6 155.38 72.81V70.84C155.38 61.63 157.25 53.44 160.97 46.35C159.4 44.23 157.69 42.23 155.84 40.35C143.39 27.73 125.05 21.4 100.81 21.4C76.57 21.4 58.34 27.73 45.89 40.35M141.46 96.64C141.46 111.58 138.14 123.12 131.53 131.29C124.89 139.47 114.66 143.55 100.82 143.55C86.98 143.55 77.04 139.47 70.34 131.29C63.64 123.13 60.29 111.58 60.29 96.64V94.66C60.29 79.72 63.61 68.16 70.23 59.95C76.86 51.76 87.06 47.65 100.82 47.65C114.58 47.65 124.9 51.74 131.53 59.9C138.14 68.06 141.46 79.66 141.46 94.66V96.64Z" fill="#F1F7F1"/>
<path d="M307.26 91.83C306.98 91.7 306.7 91.57 306.43 91.43C300.53 88.48 295.84 84.37 292.49 79.22C289.1 73.99 287.38 67.73 287.38 60.59V58.83C287.38 53.2 288.53 48.04 290.81 43.38C290.11 42.59 289.39 41.81 288.65 41.06C276.2 28.46 257.67 22.16 233.07 22.16C210.95 22.16 193.98 26.39 182.16 34.85C170.34 43.31 164.42 55.3 164.42 70.83V72.8C164.42 86.57 169.21 97.31 178.81 105.04C188.4 112.77 201.84 116.63 219.13 116.63C229.6 116.63 238.53 115.38 245.93 112.9C253.33 110.41 259.37 106.98 264.06 102.63C268.49 98.5 271.71 93.8 273.72 88.54C273.92 88 274.44 87.63 275.02 87.63C275.18 89.91 275.27 92.28 275.27 94.77V96.42C275.27 112.46 270.82 124.36 261.92 132.12C253.02 139.88 238.94 143.77 219.68 143.77C210.02 143.77 201.27 142.74 193.42 140.69C185.59 138.64 178.49 136.12 172.11 133.11L175.63 161.01C181.34 163.35 188.23 165.37 196.28 167.05C204.34 168.74 213.71 169.58 224.4 169.58C251.49 169.58 272.09 163.28 286.19 150.68C287.2 149.78 288.16 148.85 289.09 147.9C286.51 142.33 285.2 136.19 285.2 129.64V127.98C285.2 120.2 286.93 113.32 290.35 107.53C293.76 101.75 298.6 97.05 304.76 93.54C305.59 93.07 306.43 92.61 307.31 92.2C307.31 92.07 307.31 91.95 307.29 91.81L307.26 91.83ZM264.13 83.28C264.13 83.28 264.06 83.33 264.03 83.35C259.71 86.57 254.73 89.06 249.09 90.82C243.45 92.58 237.34 93.46 230.75 93.46C219.25 93.46 210.71 91.58 205.16 87.81C199.59 84.04 196.81 78.63 196.81 71.6V70.72C196.81 63.76 199.77 58.27 205.7 54.24C211.63 50.22 220.57 48.2 232.5 48.2C246.92 48.2 257.66 51.89 264.68 59.24C265.6 60.2 266.46 61.23 267.25 62.35C272.04 69.02 270.69 78.37 264.12 83.29L264.13 83.28Z" fill="#F1F7F1"/>
<path d="M367.17 171.02C353.42 171.02 341.81 170.03 332.36 168.04C322.91 166.05 315.32 163.22 309.58 159.54C303.84 155.86 299.71 151.49 297.17 146.41C294.63 141.34 293.36 135.75 293.36 129.64V127.98C293.36 121.21 294.81 115.37 297.72 110.44C300.62 105.51 304.73 101.54 310.02 98.5301C315.17 95.6001 321.27 93.5301 328.3 92.34C328.64 92.2801 328.88 92.0001 328.88 91.6601C328.88 91.3001 328.61 91.0101 328.26 90.9701C321.9 90.2701 316.3 88.7101 311.45 86.2901C306.45 83.7901 302.55 80.39 299.76 76.09C296.96 71.7901 295.57 66.6201 295.57 60.5901V58.8201C295.57 47.2001 301.38 38.0601 313 31.4101C324.62 24.7501 342.68 21.4301 367.17 21.4301C391.66 21.4301 410.07 24.7601 421.72 31.4101C433.38 38.0701 439.21 47.2001 439.21 58.8201V60.5901C439.21 66.5501 437.81 71.6801 435.02 75.9801C432.22 80.2801 428.33 83.7001 423.33 86.2401C418.49 88.7001 412.88 90.2801 406.52 90.9701C406.17 91.0101 405.9 91.3001 405.9 91.6601C405.9 92.0001 406.15 92.29 406.48 92.34C413.59 93.5301 419.73 95.62 424.93 98.59C430.26 101.64 434.34 105.63 437.18 110.56C440.01 115.49 441.43 121.3 441.43 127.99V129.65C441.43 135.39 440.27 140.76 437.96 145.76C435.64 150.76 431.69 155.16 426.1 158.94C420.51 162.73 412.93 165.69 403.37 167.82C393.81 169.95 381.75 171.02 367.18 171.02H367.17ZM367.95 146.09C382.51 146.09 392.9 144.32 399.12 140.79C405.33 137.26 408.44 132.52 408.44 126.56V125.46C408.44 119.5 405.11 114.85 398.46 111.5C394.31 109.42 388.53 107.78 381.12 106.59C370.43 104.88 359.51 104.89 348.91 107.06C343.24 108.22 338.76 109.75 335.47 111.66C329.4 115.19 326.37 119.79 326.37 125.45V126.55C326.37 132.73 329.59 137.53 336.02 140.95C342.45 144.37 353.1 146.08 367.96 146.08L367.95 146.09ZM354.82 81.3901C364.57 82.7701 374.5 82.7201 384.17 80.9001C389.64 79.8701 394.11 78.4501 397.57 76.6501C403.86 73.3801 407 69.1301 407 63.9101V62.9201C407 57.1801 403.84 52.8101 397.51 49.7901C391.18 46.7801 381.07 45.2701 367.17 45.2701C353.27 45.2701 343.6 46.7801 337.27 49.7901C330.94 52.8101 327.78 57.0701 327.78 62.5901V63.6901C327.78 67.0701 329.1 70.1101 331.75 72.7901C334.4 75.4801 338.72 77.6601 344.71 79.3501C347.61 80.1701 350.97 80.8501 354.81 81.3901H354.82Z" fill="#F1F7F1"/>
<path d="M172.2 110.14C161.05 101.16 155.38 88.6 155.38 72.83V70.86C155.38 61.66 157.25 53.48 160.96 46.39C159.4 44.27 157.68 42.27 155.83 40.4C143.39 27.79 125.07 21.47 100.84 21.47C76.61 21.47 58.4 27.79 45.96 40.4C33.52 53.03 27.31 71.12 27.31 94.68V96.44C27.31 120.15 33.57 138.31 46.07 150.94C58.59 163.56 76.84 169.87 100.84 169.87C124.84 169.87 143.39 163.56 155.83 150.94C158.92 147.8 161.62 144.33 163.94 140.52C166.58 136.19 168.71 131.42 170.36 126.22C171.83 121.58 172.91 116.58 173.59 111.24C173.12 110.89 172.65 110.53 172.19 110.16L172.2 110.14ZM141.46 96.64C141.46 111.57 138.14 123.1 131.54 131.26C124.91 139.43 114.68 143.51 100.85 143.51C87.02 143.51 77.09 139.43 70.4 131.26C63.7 123.1 60.35 111.57 60.35 96.64V94.66C60.35 79.73 63.67 68.18 70.28 59.97C76.9 51.78 87.1 47.68 100.85 47.68C114.6 47.68 124.91 51.77 131.54 59.92C138.15 68.08 141.46 79.66 141.46 94.65V96.63V96.64Z" fill="#F1F7F1"/>
<path d="M0 184.29H32L66.35 0H34.35L0 184.29Z" fill="#00FB64"/>
<path d="M510.27 114.05C507.86 111.72 504.65 109.9 500.63 108.59C496.61 107.28 491.68 106.62 485.83 106.62C481.37 106.62 477.31 106.98 473.65 107.69C469.99 108.41 467.68 108.82 464.82 109.9C461.96 110.97 459.01 112.53 456.94 113.6L455.03 124.34C458.81 122.55 463.09 120.92 467.86 119.45C472.63 117.98 477.99 117.24 483.91 117.24C490.91 117.24 496.06 118.45 499.37 120.88C501.19 122.22 502.51 123.89 503.33 125.9C504.04 127.64 502.82 129.56 500.95 129.7L480.57 131.21C470.82 131.93 463.57 133.67 458.82 136.43C454.07 139.2 451.69 143.62 451.69 149.71V150.25C451.69 155.74 453.79 159.97 457.99 162.93C462.19 165.89 468.05 167.38 475.57 167.38C481.62 167.38 486.56 166.61 490.4 165.08C494.24 163.55 497.24 161.55 499.41 159.08C501.58 156.61 503.1 153.95 503.98 151.08H504.57L504.1 165.64H517.11V132.4C517.11 128.74 516.57 125.35 515.5 122.22C514.43 119.1 512.69 116.37 510.28 114.04L510.27 114.05ZM500.21 149.2C498.02 151.49 495.16 153.32 491.62 154.69C488.08 156.06 483.88 156.75 479.03 156.75C474.18 156.75 470.77 156.07 468.35 154.72C465.92 153.37 464.71 151.44 464.71 148.93V148.51C464.71 145.73 465.92 143.75 468.35 142.57C470.78 141.4 475.17 140.55 481.54 140.03L499.68 138.6C502.16 138.41 504.28 140.36 504.28 142.85C503.46 145.1 502.11 147.21 500.22 149.19L500.21 149.2Z" fill="#00FB64"/>
<path d="M589.38 114.32C583.85 109.27 576.33 106.74 566.82 106.74C561.29 106.74 556.63 107.5 552.85 109.01C550.69 109.87 548.8 110.9 547.15 112.07L553.55 70.98H539.57L524.57 167.38H538.55L540.53 154.67C541.48 156.57 542.7 158.28 544.2 159.8C546.59 162.23 549.64 164.1 553.36 165.41C557.08 166.72 561.43 167.38 566.4 167.38C576.07 167.38 583.7 164.85 589.29 159.8C594.88 154.75 597.68 147.37 597.68 137.66V136.47C597.68 126.76 594.91 119.38 589.38 114.33V114.32ZM584.54 137.31C584.54 142.95 582.82 147.24 579.38 150.18C575.94 153.12 571.21 154.59 565.18 154.59C561.39 154.59 557.89 153.97 554.7 152.73C551.51 151.49 548.92 149.57 546.93 146.99C544.94 144.4 543.85 141.1 543.63 137.1V135.87C543.63 132.35 544.88 128.91 547.25 126.3C547.27 126.28 547.28 126.26 547.3 126.25C549.29 124.09 551.78 122.38 554.8 121.12C557.81 119.86 561.22 119.23 565.01 119.23C571.14 119.23 575.93 120.68 579.37 123.59C582.81 126.5 584.53 130.74 584.53 136.3V137.31H584.54Z" fill="#00FB64"/>
<path d="M443.09 70.4L428.08 166.79H442.06L457.07 70.4H443.09Z" fill="#00FB64"/>
</g>
<defs>
<clipPath id="clip0_15_495">
<rect width="597.67" height="184.29" fill="white"/>
</clipPath>
</defs>
</svg>
